# xmcd CD database file
#
# Track frame offsets:
#	150
#	19637
#	33095
#	55914
#	75503
#	91479
#	113742
#	136059
#	145740
#	165858
#
# Disc length: 2501 seconds
#
# Revision: 0
# Processed by: cddbd v1.4PL0 Copyright (c) Steve Scherf et al.
# Submitted via: CDex 1.50beta9
#
DISCID=6a09c30a
DTITLE=Howard Riley - Singleness - Solo Piano
DYEAR=1900
DGENRE=Jazz
TTITLE0=Imprint Eight
TTITLE1=Retrospective
TTITLE2=Item
TTITLE3=Boeotian
TTITLE4=Inside
TTITLE5=Project
TTITLE6=Gypsum
TTITLE7=Glancing
TTITLE8=Ice
TTITLE9=Chained Melody
EXTD=
EXTT0=
EXTT1=
EXTT2=
EXTT3=
EXTT4=
EXTT5=
EXTT6=
EXTT7=
EXTT8=
EXTT9=
PLAYORDER=
